YUUThaanaKufi-Regular.ufo
<glyph name="period" format="1">
  <advance width="385" height="-120"/>
  <unicode hex="002E"/>
  <outline>
    <contour>
      <point x="135" y="0" type="line" name="hr00"/>
      <point x="135" y="124" type="line"/>
      <point x="251" y="124" type="line"/>
      <point x="251" y="0" type="line"/>
    </contour>
  </outline>
</glyph>
<glyph name="uni061B" format="1">
  <advance width="385" height="-120"/>
  <unicode hex="061B"/>
  <outline>
    <contour>
      <point x="155" y="374" type="line" name="hr00"/>
      <point x="236" y="486" type="line"/>
      <point x="292" y="486" type="line"/>
      <point x="220" y="374" type="line"/>
      <point x="251" y="374" type="line"/>
      <point x="251" y="250" type="line"/>
      <point x="135" y="250" type="line"/>
      <point x="135" y="374" type="line"/>
    </contour>
    <contour>
      <point x="135" y="0" type="line"/>
      <point x="135" y="124" type="line"/>
      <point x="251" y="124" type="line"/>
      <point x="251" y="0" type="line"/>
    </contour>
  </outline>
</glyph>
<glyph name="uni061F" format="1">
  <advance width="632" height="-120"/>
  <unicode hex="061F"/>
  <outline>
    <contour>
      <point x="345" y="0" type="line" name="hr00"/>
      <point x="345" y="124" type="line"/>
      <point x="461" y="124" type="line"/>
      <point x="461" y="0" type="line"/>
    </contour>
    <contour>
      <point x="503" y="790" type="line"/>
      <point x="503" y="665" type="line"/>
      <point x="251" y="665" type="line"/>
      <point x="251" y="517" type="line"/>
      <point x="461" y="517" type="line"/>
      <point x="461" y="260" type="line"/>
      <point x="345" y="260" type="line"/>
      <point x="345" y="389" type="line"/>
      <point x="135" y="389" type="line"/>
      <point x="135" y="790" type="line"/>
    </contour>
  </outline>
</glyph>
<glyph name="A" format="1">
  <advance width="634" height="-120"/>
  <unicode hex="0780"/>
  <outline>
    <contour>
      <point x="255" y="0" type="line" name="hr00"/>
      <point x="255" y="684" type="line"/>
      <point x="371" y="684" type="line"/>
      <point x="371" y="0" type="line"/>
    </contour>
  </outline>
</glyph>
<glyph name="B" format="1">
  <advance width="624" height="-120"/>
  <unicode hex="0781"/>
  <outline>
    <contour>
      <point x="105" y="0" type="line" name="hr00"/>
      <point x="105" y="681" type="line"/>
      <point x="221" y="681" type="line"/>
      <point x="221" y="408" type="line"/>
      <point x="415" y="408" type="line"/>
      <point x="415" y="681" type="line"/>
      <point x="531" y="681" type="line"/>
      <point x="531" y="280" type="line"/>
      <point x="221" y="280" type="line"/>
      <point x="221" y="0" type="line"/>
    </contour>
  </outline>
</glyph>
<glyph name="C" format="1">
  <advance width="923" height="-120"/>
  <unicode hex="0782"/>
  <outline>
    <contour>
      <point x="105" y="0" type="line" name="hr00"/>
      <point x="105" y="684" type="line"/>
      <point x="221" y="684" type="line"/>
      <point x="221" y="408" type="line"/>
      <point x="395" y="408" type="line"/>
      <point x="395" y="684" type="line"/>
      <point x="511" y="684" type="line"/>
      <point x="511" y="408" type="line"/>
      <point x="685" y="408" type="line"/>
      <point x="685" y="684" type="line"/>
      <point x="801" y="684" type="line"/>
      <point x="801" y="280" type="line"/>
      <point x="221" y="280" type="line"/>
      <point x="221" y="0" type="line"/>
    </contour>
  </outline>
</glyph>
<glyph name="D" format="1">
  <advance width="831" height="-120"/>
  <unicode hex="0783"/>
  <outline>
    <contour>
      <point x="105" y="0" type="line" name="hr00"/>
      <point x="105" y="682" type="line"/>
      <point x="221" y="682" type="line"/>
      <point x="221" y="408" type="line"/>
      <point x="415" y="408" type="line"/>
      <point x="415" y="682" type="line"/>
      <point x="698" y="682" type="line"/>
      <point x="698" y="554" type="line"/>
      <point x="531" y="554" type="line"/>
      <point x="531" y="408" type="line"/>
      <point x="701" y="408" type="line"/>
      <point x="701" y="280" type="line"/>
      <point x="221" y="280" type="line"/>
      <point x="221" y="0" type="line"/>
    </contour>
  </outline>
</glyph>
<glyph name="E" format="1">
  <advance width="926" height="-120"/>
  <unicode hex="0784"/>
  <outline>
    <contour>
      <point x="221" y="559" type="line" name="hr00"/>
      <point x="221" y="128" type="line"/>
      <point x="415" y="128" type="line"/>
      <point x="415" y="559" type="line"/>
    </contour>
    <contour>
      <point x="531" y="688" type="line"/>
      <point x="531" y="128" type="line"/>
      <point x="705" y="128" type="line"/>
      <point x="705" y="688" type="line"/>
      <point x="821" y="688" type="line"/>
      <point x="821" y="0" type="line"/>
      <point x="105" y="0" type="line"/>
      <point x="105" y="688" type="line"/>
    </contour>
  </outline>
</glyph>
<glyph name="F" format="1">
  <advance width="643" height="-120"/>
  <unicode hex="0785"/>
  <outline>
    <contour>
      <point x="415" y="281" type="line" name="hr00"/>
      <point x="105" y="281" type="line"/>
      <point x="105" y="681" type="line"/>
      <point x="221" y="681" type="line"/>
      <point x="221" y="409" type="line"/>
      <point x="415" y="409" type="line"/>
      <point x="415" y="681" type="line"/>
      <point x="531" y="681" type="line"/>
      <point x="531" y="0" type="line"/>
      <point x="415" y="0" type="line"/>
    </contour>
  </outline>
</glyph>
<glyph name="G" format="1">
  <advance width="643" height="-120"/>
  <unicode hex="0786"/>
  <outline>
    <contour>
      <point x="105" y="0" type="line" name="hr00"/>
      <point x="105" y="684" type="line"/>
      <point x="221" y="684" type="line"/>
      <point x="221" y="128" type="line"/>
      <point x="415" y="128" type="line"/>
      <point x="415" y="684" type="line"/>
      <point x="531" y="684" type="line"/>
      <point x="531" y="0" type="line"/>
    </contour>
  </outline>
</glyph>
<glyph name="H" format="1">
  <advance width="643" height="-120"/>
  <unicode hex="0787"/>
  <outline>
    <contour>
      <point x="531" y="681" type="line" name="hr00"/>
      <point x="531" y="0" type="line"/>
      <point x="415" y="0" type="line"/>
      <point x="415" y="553" type="line"/>
      <point x="221" y="553" type="line"/>
      <point x="221" y="0" type="line"/>
      <point x="105" y="0" type="line"/>
      <point x="105" y="681" type="line"/>
    </contour>
  </outline>
</glyph>
<glyph name="I" format="1">
  <advance width="646" height="-120"/>
  <unicode hex="0788"/>
  <outline>
    <contour>
      <point x="415" y="555" type="line" name="hr00"/>
      <point x="221" y="555" type="line"/>
      <point x="221" y="407" type="line"/>
      <point x="415" y="407" type="line"/>
    </contour>
    <contour>
      <point x="531" y="680" type="line"/>
      <point x="531" y="0" type="line"/>
      <point x="415" y="0" type="line"/>
      <point x="415" y="279" type="line"/>
      <point x="105" y="279" type="line"/>
      <point x="105" y="680" type="line"/>
    </contour>
  </outline>
</glyph>
<glyph name="J" format="1">
  <advance width="643" height="-120"/>
  <unicode hex="0789"/>
  <outline>
    <contour>
      <point x="125" y="1" type="line" name="hr00"/>
      <point x="125" y="129" type="line"/>
      <point x="415" y="129" type="line"/>
      <point x="415" y="559" type="line"/>
      <point x="125" y="559" type="line"/>
      <point x="125" y="687" type="line"/>
      <point x="531" y="684" type="line"/>
      <point x="531" y="0" type="line"/>
    </contour>
  </outline>
</glyph>
<glyph name="K" format="1">
  <advance width="778" height="-120"/>
  <unicode hex="078A"/>
  <outline>
    <contour>
      <point x="661" y="281" type="line" name="hr00"/>
      <point x="221" y="281" type="line"/>
      <point x="221" y="0" type="line"/>
      <point x="105" y="0" type="line"/>
      <point x="105" y="682" type="line"/>
      <point x="221" y="682" type="line"/>
      <point x="221" y="409" type="line"/>
      <point x="545" y="409" type="line"/>
      <point x="545" y="554" type="line"/>
      <point x="393" y="554" type="line"/>
      <point x="393" y="682" type="line"/>
      <point x="661" y="682" type="line"/>
    </contour>
  </outline>
</glyph>
<glyph name="L" format="1">
  <advance width="999" height="-120"/>
  <unicode hex="078B"/>
  <outline>
    <contour>
      <point x="105" y="0" type="line" name="hr00"/>
      <point x="105" y="684" type="line"/>
      <point x="221" y="684" type="line"/>
      <point x="221" y="406" type="line"/>
      <point x="395" y="406" type="line"/>
      <point x="395" y="684" type="line"/>
      <point x="511" y="684" type="line"/>
      <point x="511" y="406" type="line"/>
      <point x="745" y="406" type="line"/>
      <point x="745" y="554" type="line"/>
      <point x="633" y="554" type="line"/>
      <point x="633" y="682" type="line"/>
      <point x="861" y="682" type="line"/>
      <point x="861" y="278" type="line"/>
      <point x="221" y="278" type="line"/>
      <point x="221" y="0" type="line"/>
    </contour>
  </outline>
</glyph>
<glyph name="N" format="1">
  <advance width="742" height="-120"/>
  <unicode hex="078D"/>
  <outline>
    <contour>
      <point x="621" y="0" type="line" name="hr00"/>
      <point x="135" y="1" type="line"/>
      <point x="135" y="129" type="line"/>
      <point x="505" y="129" type="line"/>
      <point x="505" y="556" type="line"/>
      <point x="241" y="556" type="line"/>
      <point x="363" y="400" type="line"/>
      <point x="363" y="272" type="line"/>
      <point x="135" y="272" type="line"/>
      <point x="135" y="400" type="line"/>
      <point x="248" y="400" type="line"/>
      <point x="135" y="556" type="line"/>
      <point x="125" y="556" type="line"/>
      <point x="125" y="681" type="line"/>
      <point x="621" y="681" type="line"/>
    </contour>
  </outline>
</glyph>
<glyph name="O" format="1">
  <advance width="643" height="-120"/>
  <unicode hex="078E"/>
  <outline>
    <contour>
      <point x="125" y="684" type="line" name="hr00"/>
      <point x="513" y="684" type="line"/>
      <point x="513" y="556" type="line"/>
      <point x="263" y="556" type="line"/>
      <point x="513" y="129" type="line"/>
      <point x="513" y="1" type="line"/>
      <point x="125" y="1" type="line"/>
      <point x="125" y="129" type="line"/>
      <point x="374" y="135" type="line"/>
      <point x="125" y="556" type="line"/>
    </contour>
  </outline>
</glyph>
<glyph name="P" format="1">
  <advance width="926" height="-120"/>
  <unicode hex="078F"/>
  <outline>
    <contour>
      <point x="105" y="0" type="line" name="hr00"/>
      <point x="105" y="681" type="line"/>
      <point x="221" y="681" type="line"/>
      <point x="221" y="409" type="line"/>
      <point x="375" y="409" type="line"/>
      <point x="375" y="681" type="line"/>
      <point x="491" y="681" type="line"/>
      <point x="491" y="409" type="line"/>
      <point x="645" y="409" type="line"/>
      <point x="645" y="681" type="line"/>
      <point x="761" y="681" type="line"/>
      <point x="761" y="281" type="line"/>
      <point x="221" y="281" type="line"/>
      <point x="221" y="128" type="line"/>
      <point x="751" y="128" type="line"/>
      <point x="751" y="0" type="line"/>
    </contour>
  </outline>
</glyph>
<glyph name="Q" format="1">
  <advance width="1151" height="-120"/>
  <unicode hex="0790"/>
  <outline>
    <contour>
      <point x="105" y="0" type="line" name="hr00"/>
      <point x="105" y="409" type="line"/>
      <point x="905" y="409" type="line"/>
      <point x="905" y="684" type="line"/>
      <point x="1021" y="684" type="line"/>
      <point x="1021" y="281" type="line"/>
      <point x="221" y="281" type="line"/>
      <point x="221" y="128" type="line"/>
      <point x="1021" y="128" type="line"/>
      <point x="1021" y="0" type="line"/>
    </contour>
  </outline>
</glyph>
<glyph name="R" format="1">
  <advance width="624" height="-120"/>
  <unicode hex="0791"/>
  <outline>
    <contour>
      <point x="247" y="129" type="line" name="hr00"/>
      <point x="513" y="129" type="line"/>
      <point x="513" y="1" type="line"/>
      <point x="125" y="1" type="line"/>
      <point x="125" y="129" type="line"/>
      <point x="375" y="556" type="line"/>
      <point x="125" y="556" type="line"/>
      <point x="125" y="684" type="line"/>
      <point x="513" y="684" type="line"/>
      <point x="513" y="556" type="line"/>
    </contour>
  </outline>
</glyph>
<glyph name="S" format="1">
  <advance width="827" height="-120"/>
  <unicode hex="0792"/>
  <outline>
    <contour>
      <point x="105" y="0" type="line" name="hr00"/>
      <point x="105" y="681" type="line"/>
      <point x="221" y="681" type="line"/>
      <point x="221" y="409" type="line"/>
      <point x="415" y="409" type="line"/>
      <point x="415" y="681" type="line"/>
      <point x="698" y="681" type="line"/>
      <point x="698" y="553" type="line"/>
      <point x="531" y="553" type="line"/>
      <point x="531" y="409" type="line"/>
      <point x="701" y="409" type="line"/>
      <point x="701" y="281" type="line"/>
      <point x="221" y="281" type="line"/>
      <point x="221" y="128" type="line"/>
      <point x="701" y="128" type="line"/>
      <point x="701" y="0" type="line"/>
    </contour>
  </outline>
</glyph>
<glyph name="T" format="1">
  <advance width="933" height="-120"/>
  <unicode hex="0793"/>
  <outline>
    <contour>
      <point x="221" y="555" type="line" name="hr00"/>
      <point x="221" y="406" type="line"/>
      <point x="415" y="406" type="line"/>
      <point x="415" y="555" type="line"/>
    </contour>
    <contour>
      <point x="105" y="278" type="line"/>
      <point x="105" y="683" type="line"/>
      <point x="531" y="683" type="line"/>
      <point x="531" y="406" type="line"/>
      <point x="705" y="406" type="line"/>
      <point x="705" y="683" type="line"/>
      <point x="821" y="683" type="line"/>
      <point x="821" y="278" type="line"/>
      <point x="531" y="278" type="line"/>
      <point x="285" y="128" type="line"/>
      <point x="814" y="128" type="line"/>
      <point x="814" y="0" type="line"/>
      <point x="106" y="0" type="line"/>
      <point x="106" y="128" type="line"/>
      <point x="342" y="278" type="line"/>
    </contour>
  </outline>
</glyph>
<glyph name="V" format="1">
  <advance width="778" height="-120"/>
  <unicode hex="0795"/>
  <outline>
    <contour>
      <point x="383" y="0" type="line" name="hr00"/>
      <point x="383" y="128" type="line"/>
      <point x="511" y="128" type="line"/>
      <point x="511" y="0" type="line"/>
    </contour>
    <contour>
      <point x="105" y="0" type="line"/>
      <point x="105" y="682" type="line"/>
      <point x="221" y="682" type="line"/>
      <point x="221" y="409" type="line"/>
      <point x="545" y="409" type="line"/>
      <point x="545" y="554" type="line"/>
      <point x="393" y="554" type="line"/>
      <point x="393" y="682" type="line"/>
      <point x="661" y="682" type="line"/>
      <point x="661" y="281" type="line"/>
      <point x="221" y="281" type="line"/>
      <point x="221" y="0" type="line"/>
    </contour>
  </outline>
</glyph>
<glyph name="W" format="1">
  <advance width="1063" height="-120"/>
  <unicode hex="0796"/>
  <outline>
    <contour>
      <point x="105" y="0" type="line" name="hr00"/>
      <point x="105" y="681" type="line"/>
      <point x="221" y="681" type="line"/>
      <point x="221" y="409" type="line"/>
      <point x="385" y="409" type="line"/>
      <point x="385" y="681" type="line"/>
      <point x="501" y="681" type="line"/>
      <point x="501" y="409" type="line"/>
      <point x="735" y="409" type="line"/>
      <point x="735" y="551" type="line"/>
      <point x="623" y="551" type="line"/>
      <point x="623" y="681" type="line"/>
      <point x="851" y="681" type="line"/>
      <point x="851" y="281" type="line"/>
      <point x="221" y="281" type="line"/>
      <point x="221" y="128" type="line"/>
      <point x="851" y="128" type="line"/>
      <point x="851" y="0" type="line"/>
    </contour>
  </outline>
</glyph>
<glyph name="X" format="1">
  <advance width="933" height="-120"/>
  <unicode hex="0797"/>
  <outline>
    <contour>
      <point x="705" y="129" type="line" name="hr00"/>
      <point x="705" y="278" type="line"/>
      <point x="511" y="278" type="line"/>
      <point x="511" y="129" type="line"/>
    </contour>
    <contour>
      <point x="821" y="406" type="line"/>
      <point x="821" y="0" type="line"/>
      <point x="705" y="0" type="line"/>
      <point x="705" y="1" type="line"/>
      <point x="511" y="1" type="line"/>
      <point x="511" y="0" type="line"/>
      <point x="395" y="0" type="line"/>
      <point x="395" y="278" type="line"/>
      <point x="221" y="278" type="line"/>
      <point x="221" y="0" type="line"/>
      <point x="105" y="0" type="line"/>
      <point x="105" y="406" type="line"/>
      <point x="391" y="406" type="line"/>
      <point x="652" y="684" type="line"/>
      <point x="841" y="684" type="line"/>
      <point x="563" y="406" type="line"/>
    </contour>
  </outline>
</glyph>
<glyph name="Y" format="1">
  <advance width="930" height="-120"/>
  <unicode hex="0798"/>
  <outline>
    <contour>
      <point x="705" y="129" type="line" name="hr00"/>
      <point x="705" y="556" type="line"/>
      <point x="511" y="556" type="line"/>
      <point x="511" y="129" type="line"/>
    </contour>
    <contour>
      <point x="395" y="0" type="line"/>
      <point x="395" y="556" type="line"/>
      <point x="221" y="556" type="line"/>
      <point x="221" y="0" type="line"/>
      <point x="105" y="0" type="line"/>
      <point x="105" y="684" type="line"/>
      <point x="821" y="684" type="line"/>
      <point x="821" y="0" type="line"/>
    </contour>
    <contour>
      <point x="563" y="430" type="line"/>
      <point x="563" y="518" type="line"/>
      <point x="651" y="518" type="line"/>
      <point x="651" y="430" type="line"/>
    </contour>
    <contour>
      <point x="563" y="300" type="line"/>
      <point x="563" y="388" type="line"/>
      <point x="651" y="388" type="line"/>
      <point x="651" y="300" type="line"/>
    </contour>
    <contour>
      <point x="563" y="170" type="line"/>
      <point x="563" y="258" type="line"/>
      <point x="651" y="258" type="line"/>
      <point x="651" y="170" type="line"/>
    </contour>
  </outline>
</glyph>
<glyph name="Z" format="1">
  <advance width="639" height="-120"/>
  <unicode hex="0799"/>
  <outline>
    <contour>
      <point x="255" y="0" type="line" name="hr00"/>
      <point x="255" y="684" type="line"/>
      <point x="371" y="684" type="line"/>
      <point x="371" y="0" type="line"/>
    </contour>
    <contour>
      <point x="423" y="0" type="line"/>
      <point x="423" y="88" type="line"/>
      <point x="511" y="88" type="line"/>
      <point x="511" y="0" type="line"/>
    </contour>
  </outline>
</glyph>
<glyph name="bracketleft" format="1">
  <advance width="643" height="-120"/>
  <unicode hex="079A"/>
  <outline>
    <contour>
      <point x="275" y="0" type="line" name="hr00"/>
      <point x="275" y="684" type="line"/>
      <point x="391" y="684" type="line"/>
      <point x="391" y="0" type="line"/>
    </contour>
    <contour>
      <point x="143" y="590" type="line"/>
      <point x="143" y="678" type="line"/>
      <point x="231" y="678" type="line"/>
      <point x="231" y="590" type="line"/>
    </contour>
  </outline>
</glyph>
<glyph name="bracketright" format="1">
  <advance width="831" height="-120"/>
  <unicode hex="079C"/>
  <outline>
    <contour>
      <point x="283" y="580" type="line" name="hr00"/>
      <point x="283" y="668" type="line"/>
      <point x="371" y="668" type="line"/>
      <point x="371" y="580" type="line"/>
    </contour>
    <contour>
      <point x="105" y="0" type="line"/>
      <point x="105" y="682" type="line"/>
      <point x="221" y="682" type="line"/>
      <point x="221" y="408" type="line"/>
      <point x="415" y="408" type="line"/>
      <point x="415" y="682" type="line"/>
      <point x="698" y="682" type="line"/>
      <point x="698" y="554" type="line"/>
      <point x="531" y="554" type="line"/>
      <point x="531" y="408" type="line"/>
      <point x="701" y="408" type="line"/>
      <point x="701" y="280" type="line"/>
      <point x="221" y="280" type="line"/>
      <point x="221" y="0" type="line"/>
    </contour>
  </outline>
</glyph>
<glyph name="asciicircum" format="1">
  <advance width="1151" height="-120"/>
  <unicode hex="079D"/>
  <outline>
    <contour>
      <point x="483" y="490" type="line" name="hr00"/>
      <point x="483" y="578" type="line"/>
      <point x="571" y="578" type="line"/>
      <point x="571" y="490" type="line"/>
    </contour>
    <contour>
      <point x="653" y="490" type="line"/>
      <point x="653" y="578" type="line"/>
      <point x="741" y="578" type="line"/>
      <point x="741" y="490" type="line"/>
    </contour>
    <contour>
      <point x="333" y="490" type="line"/>
      <point x="333" y="578" type="line"/>
      <point x="421" y="578" type="line"/>
      <point x="421" y="490" type="line"/>
    </contour>
    <contour>
      <point x="105" y="0" type="line"/>
      <point x="105" y="409" type="line"/>
      <point x="905" y="409" type="line"/>
      <point x="905" y="684" type="line"/>
      <point x="1021" y="684" type="line"/>
      <point x="1021" y="281" type="line"/>
      <point x="221" y="281" type="line"/>
      <point x="221" y="128" type="line"/>
      <point x="1021" y="128" type="line"/>
      <point x="1021" y="0" type="line"/>
    </contour>
  </outline>
</glyph>
<glyph name="underscore" format="1">
  <advance width="1151" height="-120"/>
  <unicode hex="079E"/>
  <outline>
    <contour>
      <point x="513" y="160" type="line" name="hr00"/>
      <point x="513" y="248" type="line"/>
      <point x="601" y="248" type="line"/>
      <point x="601" y="160" type="line"/>
    </contour>
    <contour>
      <point x="105" y="0" type="line"/>
      <point x="105" y="409" type="line"/>
      <point x="905" y="409" type="line"/>
      <point x="905" y="684" type="line"/>
      <point x="1021" y="684" type="line"/>
      <point x="1021" y="281" type="line"/>
      <point x="221" y="281" type="line"/>
      <point x="221" y="128" type="line"/>
      <point x="1021" y="128" type="line"/>
      <point x="1021" y="0" type="line"/>
    </contour>
  </outline>
</glyph>
<glyph name="grave" format="1">
  <advance width="1151" height="-120"/>
  <unicode hex="079F"/>
  <outline>
    <contour>
      <point x="493" y="500" type="line" name="hr00"/>
      <point x="493" y="588" type="line"/>
      <point x="581" y="588" type="line"/>
      <point x="581" y="500" type="line"/>
    </contour>
    <contour>
      <point x="105" y="0" type="line"/>
      <point x="105" y="409" type="line"/>
      <point x="905" y="409" type="line"/>
      <point x="905" y="684" type="line"/>
      <point x="1021" y="684" type="line"/>
      <point x="1021" y="281" type="line"/>
      <point x="221" y="281" type="line"/>
      <point x="221" y="128" type="line"/>
      <point x="1021" y="128" type="line"/>
      <point x="1021" y="0" type="line"/>
    </contour>
  </outline>
</glyph>
<glyph name="a" format="1">
  <advance width="930" height="-120"/>
  <unicode hex="07A0"/>
  <outline>
    <contour>
      <point x="263" y="100" type="line" name="hr00"/>
      <point x="263" y="188" type="line"/>
      <point x="351" y="188" type="line"/>
      <point x="351" y="100" type="line"/>
    </contour>
    <contour>
      <point x="705" y="129" type="line"/>
      <point x="705" y="556" type="line"/>
      <point x="511" y="556" type="line"/>
      <point x="511" y="129" type="line"/>
    </contour>
    <contour>
      <point x="395" y="556" type="line"/>
      <point x="221" y="556" type="line"/>
      <point x="221" y="0" type="line"/>
      <point x="105" y="0" type="line"/>
      <point x="105" y="684" type="line"/>
      <point x="821" y="684" type="line"/>
      <point x="821" y="0" type="line"/>
      <point x="395" y="0" type="line"/>
    </contour>
  </outline>
</glyph>
<glyph name="c" format="1">
  <advance width="643" height="-120"/>
  <unicode hex="07A2"/>
  <outline>
    <contour>
      <point x="273" y="90" type="line" name="hr00"/>
      <point x="273" y="178" type="line"/>
      <point x="361" y="178" type="line"/>
      <point x="361" y="90" type="line"/>
    </contour>
    <contour>
      <point x="531" y="681" type="line"/>
      <point x="531" y="0" type="line"/>
      <point x="415" y="0" type="line"/>
      <point x="415" y="553" type="line"/>
      <point x="221" y="553" type="line"/>
      <point x="221" y="0" type="line"/>
      <point x="105" y="0" type="line"/>
      <point x="105" y="681" type="line"/>
    </contour>
  </outline>
</glyph>
<glyph name="d" format="1">
  <advance width="787" height="-120"/>
  <unicode hex="07A3"/>
  <outline>
    <contour>
      <point x="541" y="681" type="line" name="hr00"/>
      <point x="541" y="0" type="line"/>
      <point x="425" y="0" type="line"/>
      <point x="425" y="553" type="line"/>
      <point x="231" y="553" type="line"/>
      <point x="231" y="0" type="line"/>
      <point x="115" y="0" type="line"/>
      <point x="115" y="681" type="line"/>
    </contour>
    <contour>
      <point x="-27" y="580" type="line"/>
      <point x="-27" y="668" type="line"/>
      <point x="61" y="668" type="line"/>
      <point x="61" y="580" type="line"/>
    </contour>
  </outline>
</glyph>
<glyph name="e" format="1">
  <advance width="754" height="-120"/>
  <unicode hex="07A4"/>
  <outline>
    <contour>
      <point x="125" y="684" type="line" name="hr00"/>
      <point x="513" y="684" type="line"/>
      <point x="513" y="556" type="line"/>
      <point x="263" y="556" type="line"/>
      <point x="513" y="129" type="line"/>
      <point x="513" y="1" type="line"/>
      <point x="125" y="1" type="line"/>
      <point x="125" y="129" type="line"/>
      <point x="391" y="129" type="line"/>
      <point x="125" y="556" type="line"/>
    </contour>
    <contour>
      <point x="543" y="430" type="line"/>
      <point x="543" y="518" type="line"/>
      <point x="631" y="518" type="line"/>
      <point x="631" y="430" type="line"/>
    </contour>
    <contour>
      <point x="543" y="280" type="line"/>
      <point x="543" y="368" type="line"/>
      <point x="631" y="368" type="line"/>
      <point x="631" y="280" type="line"/>
    </contour>
  </outline>
</glyph>
<glyph name="f" format="1">
  <advance width="646" height="-120"/>
  <unicode hex="07A5"/>
  <outline>
    <contour>
      <point x="415" y="555" type="line" name="hr00"/>
      <point x="221" y="555" type="line"/>
      <point x="221" y="407" type="line"/>
      <point x="415" y="407" type="line"/>
    </contour>
    <contour>
      <point x="531" y="680" type="line"/>
      <point x="531" y="0" type="line"/>
      <point x="415" y="0" type="line"/>
      <point x="415" y="279" type="line"/>
      <point x="105" y="279" type="line"/>
      <point x="105" y="680" type="line"/>
    </contour>
    <contour>
      <point x="273" y="440" type="line"/>
      <point x="273" y="528" type="line"/>
      <point x="361" y="528" type="line"/>
      <point x="361" y="440" type="line"/>
    </contour>
  </outline>
</glyph>
<glyph name="p" format="1">
  <advance width="0" height="-120"/>
  <unicode hex="07A6"/>
  <outline>
    <contour>
      <point x="536" y="880" type="line" name="hr00"/>
      <point x="536" y="772" type="line"/>
      <point x="118" y="772" type="line"/>
      <point x="118" y="880" type="line"/>
    </contour>
  </outline>
</glyph>
<glyph name="q" format="1">
  <advance width="0" height="-61"/>
  <unicode hex="07A7"/>
  <outline>
    <contour>
      <point x="530" y="1060" type="line" name="hr00"/>
      <point x="530" y="952" type="line"/>
      <point x="112" y="952" type="line"/>
      <point x="112" y="1060" type="line"/>
    </contour>
    <contour>
      <point x="530" y="880" type="line"/>
      <point x="530" y="772" type="line"/>
      <point x="112" y="772" type="line"/>
      <point x="112" y="880" type="line"/>
    </contour>
  </outline>
</glyph>
<glyph name="r" format="1">
  <advance width="0" height="-120"/>
  <unicode hex="07A8"/>
  <outline>
    <contour>
      <point x="531" y="-100" type="line" name="hr00"/>
      <point x="531" y="-208" type="line"/>
      <point x="113" y="-208" type="line"/>
      <point x="113" y="-100" type="line"/>
    </contour>
  </outline>
</glyph>
<glyph name="s" format="1">
  <advance width="0" height="-457"/>
  <unicode hex="07A9"/>
  <outline>
    <contour>
      <point x="526" y="-110" type="line" name="hr00"/>
      <point x="526" y="-218" type="line"/>
      <point x="108" y="-218" type="line"/>
      <point x="108" y="-110" type="line"/>
    </contour>
    <contour>
      <point x="526" y="-290" type="line"/>
      <point x="526" y="-398" type="line"/>
      <point x="108" y="-398" type="line"/>
      <point x="108" y="-290" type="line"/>
    </contour>
  </outline>
</glyph>
<glyph name="t" format="1">
  <advance width="0" height="-120"/>
  <unicode hex="07AA"/>
  <outline>
    <contour>
      <point x="535" y="772" type="line" name="hr00"/>
      <point x="117" y="772" type="line"/>
      <point x="117" y="880" type="line"/>
      <point x="417" y="880" type="line"/>
      <point x="417" y="952" type="line"/>
      <point x="117" y="952" type="line"/>
      <point x="117" y="1060" type="line"/>
      <point x="535" y="1060" type="line"/>
    </contour>
  </outline>
</glyph>
<glyph name="u" format="1">
  <advance width="0" height="-120"/>
  <unicode hex="07AB"/>
  <outline>
    <contour>
      <point x="531" y="772" type="line" name="hr00"/>
      <point x="333" y="772" type="line"/>
      <point x="333" y="880" type="line"/>
      <point x="453" y="880" type="line"/>
      <point x="453" y="952" type="line"/>
      <point x="333" y="952" type="line"/>
      <point x="333" y="1060" type="line"/>
      <point x="531" y="1060" type="line"/>
    </contour>
    <contour>
      <point x="331" y="880" type="line"/>
      <point x="331" y="772" type="line"/>
      <point x="113" y="772" type="line"/>
      <point x="113" y="880" type="line"/>
      <point x="253" y="880" type="line"/>
      <point x="253" y="952" type="line"/>
      <point x="113" y="952" type="line"/>
      <point x="113" y="1060" type="line"/>
      <point x="331" y="1060" type="line"/>
      <point x="331" y="952" type="line"/>
      <point x="329" y="952" type="line"/>
      <point x="329" y="880" type="line"/>
    </contour>
  </outline>
</glyph>
<glyph name="v" format="1">
  <advance width="3" height="-120"/>
  <unicode hex="07AC"/>
  <outline>
    <contour>
      <point x="232" y="952" type="line" name="hr00"/>
      <point x="232" y="880" type="line"/>
      <point x="534" y="880" type="line"/>
      <point x="534" y="772" type="line"/>
      <point x="116" y="772" type="line"/>
      <point x="116" y="1060" type="line"/>
      <point x="534" y="1060" type="line"/>
      <point x="534" y="952" type="line"/>
    </contour>
  </outline>
</glyph>
<glyph name="w" format="1">
  <advance width="0" height="-120"/>
  <unicode hex="07AD"/>
  <outline>
    <contour>
      <point x="123" y="1060" type="line" name="hr00"/>
      <point x="321" y="1060" type="line"/>
      <point x="321" y="952" type="line"/>
      <point x="201" y="952" type="line"/>
      <point x="201" y="880" type="line"/>
      <point x="321" y="880" type="line"/>
      <point x="321" y="772" type="line"/>
      <point x="123" y="772" type="line"/>
    </contour>
    <contour>
      <point x="323" y="880" type="line"/>
      <point x="325" y="880" type="line"/>
      <point x="325" y="952" type="line"/>
      <point x="323" y="952" type="line"/>
      <point x="323" y="1060" type="line"/>
      <point x="541" y="1060" type="line"/>
      <point x="541" y="952" type="line"/>
      <point x="401" y="952" type="line"/>
      <point x="401" y="880" type="line"/>
      <point x="541" y="880" type="line"/>
      <point x="541" y="772" type="line"/>
      <point x="323" y="772" type="line"/>
    </contour>
  </outline>
</glyph>
<glyph name="x" format="1">
  <advance width="0" height="-120"/>
  <unicode hex="07AE"/>
  <outline>
    <contour>
      <point x="396" y="952" type="line" name="hr00"/>
      <point x="396" y="880" type="line"/>
      <point x="538" y="880" type="line"/>
      <point x="538" y="772" type="line"/>
      <point x="120" y="772" type="line"/>
      <point x="120" y="880" type="line"/>
      <point x="280" y="880" type="line"/>
      <point x="280" y="952" type="line"/>
      <point x="120" y="952" type="line"/>
      <point x="120" y="1060" type="line"/>
      <point x="538" y="1060" type="line"/>
      <point x="538" y="952" type="line"/>
    </contour>
  </outline>
</glyph>
<glyph name="y" format="1">
  <advance width="0" height="-120"/>
  <unicode hex="07AF"/>
  <outline>
    <contour>
      <point x="120" y="772" type="line" name="hr00"/>
      <point x="120" y="1060" type="line"/>
      <point x="236" y="1060" type="line"/>
      <point x="236" y="880" type="line"/>
      <point x="420" y="880" type="line"/>
      <point x="420" y="1060" type="line"/>
      <point x="536" y="1060" type="line"/>
      <point x="538" y="772" type="line"/>
    </contour>
  </outline>
</glyph>
<glyph name="z" format="1">
  <advance width="0" height="-120"/>
  <unicode hex="07B0"/>
  <outline>
    <contour>
      <point x="413" y="880" type="line" name="hr00"/>
      <point x="413" y="952" type="line"/>
      <point x="229" y="952" type="line"/>
      <point x="229" y="880" type="line"/>
    </contour>
    <contour>
      <point x="113" y="772" type="line"/>
      <point x="113" y="1060" type="line"/>
      <point x="531" y="1060" type="line"/>
      <point x="531" y="772" type="line"/>
    </contour>
  </outline>
</glyph>
<glyph name=".notdef" format="1">
  <advance width="500" height="-120"/>
  <outline>
    <contour>
      <point x="125" y="818" type="line" name="hr00"/>
      <point x="125" y="63" type="line"/>
      <point x="375" y="63" type="line"/>
      <point x="375" y="818" type="line"/>
    </contour>
    <contour>
      <point x="438" y="0" type="line"/>
      <point x="63" y="0" type="line"/>
      <point x="63" y="880" type="line"/>
      <point x="438" y="880" type="line"/>
    </contour>
  </outline>
</glyph>
<glyph name="alifu_e" format="1">
  <advance width="624" height="-120"/>
  <outline>
    <contour>
      <point x="221" y="1060" type="line" name="hr00"/>
      <point x="221" y="770" type="line"/>
      <point x="105" y="770" type="line"/>
      <point x="105" y="1060" type="line"/>
    </contour>
    <contour>
      <point x="523" y="1060" type="line"/>
      <point x="523" y="952" type="line"/>
      <point x="105" y="952" type="line"/>
      <point x="105" y="1060" type="line"/>
    </contour>
    <contour>
      <point x="523" y="880" type="line"/>
      <point x="523" y="772" type="line"/>
      <point x="105" y="772" type="line"/>
      <point x="105" y="880" type="line"/>
    </contour>
    <contour>
      <point x="513" y="680" type="line"/>
      <point x="513" y="552" type="line"/>
      <point x="125" y="552" type="line"/>
      <point x="125" y="680" type="line"/>
    </contour>
    <contour>
      <point x="221" y="680" type="line"/>
      <point x="221" y="0" type="line"/>
      <point x="105" y="0" type="line"/>
      <point x="105" y="680" type="line"/>
    </contour>
    <contour>
      <point x="531" y="680" type="line"/>
      <point x="531" y="0" type="line"/>
      <point x="415" y="0" type="line"/>
      <point x="415" y="680" type="line"/>
    </contour>
  </outline>
</glyph>
<glyph name="alifu_ey" format="1">
  <advance width="624" height="-120"/>
  <outline>
    <contour>
      <point x="531" y="0" type="line" name="hr00"/>
      <point x="531" y="680" type="line"/>
      <point x="415" y="680" type="line"/>
      <point x="415" y="0" type="line"/>
    </contour>
    <contour>
      <point x="221" y="0" type="line"/>
      <point x="221" y="680" type="line"/>
      <point x="105" y="680" type="line"/>
      <point x="105" y="0" type="line"/>
    </contour>
    <contour>
      <point x="513" y="552" type="line"/>
      <point x="513" y="680" type="line"/>
      <point x="125" y="680" type="line"/>
      <point x="125" y="552" type="line"/>
    </contour>
    <contour>
      <point x="113" y="1060" type="line"/>
      <point x="113" y="772" type="line"/>
      <point x="191" y="806" type="line"/>
      <point x="191" y="1040" type="line"/>
    </contour>
    <contour>
      <point x="113" y="1060" type="line"/>
      <point x="113" y="952" type="line"/>
      <point x="311" y="952" type="line"/>
      <point x="311" y="1060" type="line"/>
    </contour>
    <contour>
      <point x="113" y="880" type="line"/>
      <point x="113" y="772" type="line"/>
      <point x="311" y="772" type="line"/>
      <point x="311" y="880" type="line"/>
    </contour>
    <contour>
      <point x="315" y="1020" type="line"/>
      <point x="315" y="820" type="line"/>
      <point x="391" y="820" type="line"/>
      <point x="391" y="1020" type="line"/>
    </contour>
    <contour>
      <point x="313" y="1060" type="line"/>
      <point x="313" y="952" type="line"/>
      <point x="531" y="952" type="line"/>
      <point x="531" y="1060" type="line"/>
    </contour>
    <contour>
      <point x="313" y="880" type="line"/>
      <point x="313" y="772" type="line"/>
      <point x="531" y="772" type="line"/>
      <point x="531" y="880" type="line"/>
    </contour>
  </outline>
</glyph>
<glyph name="alifu_i" format="1">
  <advance width="624" height="-120"/>
  <outline>
    <contour>
      <point x="523" y="-100" type="line" name="hr00"/>
      <point x="523" y="-208" type="line"/>
      <point x="105" y="-208" type="line"/>
      <point x="105" y="-100" type="line"/>
    </contour>
    <contour>
      <point x="531" y="680" type="line"/>
      <point x="531" y="0" type="line"/>
      <point x="415" y="0" type="line"/>
      <point x="415" y="552" type="line"/>
      <point x="221" y="552" type="line"/>
      <point x="221" y="0" type="line"/>
      <point x="105" y="0" type="line"/>
      <point x="105" y="680" type="line"/>
    </contour>
  </outline>
</glyph>
<glyph name="alifu_oa" format="1">
  <advance width="624" height="-120"/>
  <outline>
    <contour>
      <point x="531" y="680" type="line" name="hr00"/>
      <point x="531" y="0" type="line"/>
      <point x="415" y="0" type="line"/>
      <point x="415" y="552" type="line"/>
      <point x="221" y="552" type="line"/>
      <point x="221" y="0" type="line"/>
      <point x="105" y="0" type="line"/>
      <point x="105" y="680" type="line"/>
    </contour>
    <contour>
      <point x="523" y="770" type="line"/>
      <point x="105" y="770" type="line"/>
      <point x="105" y="1060" type="line"/>
      <point x="221" y="1060" type="line"/>
      <point x="221" y="880" type="line"/>
      <point x="405" y="880" type="line"/>
      <point x="405" y="1060" type="line"/>
      <point x="521" y="1060" type="line"/>
    </contour>
  </outline>
</glyph>
<glyph name="alifu_oo" format="1">
  <advance width="624" height="-120"/>
  <outline>
    <contour>
      <point x="513" y="680" type="line" name="hr00"/>
      <point x="513" y="552" type="line"/>
      <point x="125" y="552" type="line"/>
      <point x="125" y="680" type="line"/>
    </contour>
    <contour>
      <point x="221" y="680" type="line"/>
      <point x="221" y="0" type="line"/>
      <point x="105" y="0" type="line"/>
      <point x="105" y="680" type="line"/>
    </contour>
    <contour>
      <point x="531" y="680" type="line"/>
      <point x="531" y="0" type="line"/>
      <point x="415" y="0" type="line"/>
      <point x="415" y="680" type="line"/>
    </contour>
    <contour>
      <point x="531" y="1060" type="line"/>
      <point x="531" y="772" type="line"/>
      <point x="453" y="806" type="line"/>
      <point x="453" y="1040" type="line"/>
    </contour>
    <contour>
      <point x="531" y="1060" type="line"/>
      <point x="531" y="952" type="line"/>
      <point x="333" y="952" type="line"/>
      <point x="333" y="1060" type="line"/>
    </contour>
    <contour>
      <point x="531" y="880" type="line"/>
      <point x="531" y="772" type="line"/>
      <point x="333" y="772" type="line"/>
      <point x="333" y="880" type="line"/>
    </contour>
    <contour>
      <point x="329" y="1020" type="line"/>
      <point x="329" y="820" type="line"/>
      <point x="253" y="820" type="line"/>
      <point x="253" y="1020" type="line"/>
    </contour>
    <contour>
      <point x="331" y="1060" type="line"/>
      <point x="331" y="952" type="line"/>
      <point x="113" y="952" type="line"/>
      <point x="113" y="1060" type="line"/>
    </contour>
    <contour>
      <point x="331" y="880" type="line"/>
      <point x="331" y="772" type="line"/>
      <point x="113" y="772" type="line"/>
      <point x="113" y="880" type="line"/>
    </contour>
  </outline>
</glyph>
<glyph name="alifu_sukun" format="1">
  <advance width="624" height="-120"/>
  <outline>
    <contour>
      <point x="221" y="880" type="line" name="hr00"/>
      <point x="221" y="952" type="line"/>
      <point x="405" y="952" type="line"/>
      <point x="405" y="880" type="line"/>
    </contour>
    <contour>
      <point x="531" y="680" type="line"/>
      <point x="531" y="0" type="line"/>
      <point x="415" y="0" type="line"/>
      <point x="415" y="552" type="line"/>
      <point x="221" y="552" type="line"/>
      <point x="221" y="0" type="line"/>
      <point x="105" y="0" type="line"/>
      <point x="105" y="680" type="line"/>
    </contour>
    <contour>
      <point x="523" y="770" type="line"/>
      <point x="523" y="1060" type="line"/>
      <point x="105" y="1060" type="line"/>
      <point x="105" y="770" type="line"/>
    </contour>
  </outline>
</glyph>
<glyph name="ey_alt" format="1">
  <advance width="0" height="-120"/>
  <outline>
    <contour>
      <point x="366" y="772" type="line" name="hr00"/>
      <point x="366" y="880" type="line"/>
      <point x="534" y="880" type="line"/>
      <point x="534" y="772" type="line"/>
    </contour>
    <contour>
      <point x="366" y="952" type="line"/>
      <point x="366" y="1060" type="line"/>
      <point x="534" y="1060" type="line"/>
      <point x="534" y="952" type="line"/>
    </contour>
    <contour>
      <point x="368" y="780" type="line"/>
      <point x="368" y="1050" type="line"/>
      <point x="444" y="1050" type="line"/>
      <point x="444" y="780" type="line"/>
    </contour>
    <contour>
      <point x="116" y="772" type="line"/>
      <point x="116" y="880" type="line"/>
      <point x="274" y="880" type="line"/>
      <point x="274" y="772" type="line"/>
    </contour>
    <contour>
      <point x="116" y="952" type="line"/>
      <point x="116" y="1060" type="line"/>
      <point x="274" y="1060" type="line"/>
      <point x="274" y="952" type="line"/>
    </contour>
    <contour>
      <point x="118" y="780" type="line"/>
      <point x="118" y="1050" type="line"/>
      <point x="184" y="1050" type="line"/>
      <point x="184" y="780" type="line"/>
    </contour>
  </outline>
</glyph>
<glyph name="oo_alt" format="1">
  <advance width="0" height="-120"/>
  <outline>
    <contour>
      <point x="529" y="1050" type="line" name="hr00"/>
      <point x="529" y="780" type="line"/>
      <point x="453" y="780" type="line"/>
      <point x="453" y="1050" type="line"/>
    </contour>
    <contour>
      <point x="531" y="1060" type="line"/>
      <point x="531" y="952" type="line"/>
      <point x="373" y="952" type="line"/>
      <point x="373" y="1060" type="line"/>
    </contour>
    <contour>
      <point x="531" y="880" type="line"/>
      <point x="531" y="772" type="line"/>
      <point x="373" y="772" type="line"/>
      <point x="373" y="880" type="line"/>
    </contour>
    <contour>
      <point x="279" y="1050" type="line"/>
      <point x="279" y="780" type="line"/>
      <point x="203" y="780" type="line"/>
      <point x="203" y="1050" type="line"/>
    </contour>
    <contour>
      <point x="281" y="1060" type="line"/>
      <point x="281" y="952" type="line"/>
      <point x="113" y="952" type="line"/>
      <point x="113" y="1060" type="line"/>
    </contour>
    <contour>
      <point x="281" y="880" type="line"/>
      <point x="281" y="772" type="line"/>
      <point x="113" y="772" type="line"/>
      <point x="113" y="880" type="line"/>
    </contour>
  </outline>
</glyph>
